# xmcd CD database file
#
# Track frame offsets:
#	150
#	17512
#	37186
#	53882
#	66802
#	85833
#	102942
#	115605
#	127398
#	140804
#	154748
#	171851
#	183349
#	200012
#
# Disc length: 2828 seconds
#
# Revision: 0
# Processed by: cddbd v1.5.2PL0 Copyright (c) Steve Scherf et al.
# Submitted via: CDex 1.70beta2
#
DISCID=c90b0a0e
DTITLE=Amy Gallatin - Roger Williams - Something 'Bout You
DYEAR=2007
DGENRE=Country
TTITLE0=Something 'Bout You
TTITLE1=I Thought I Heard You Calling My Name
TTITLE2=Don't Blame Me
TTITLE3=Slowly But Surely
TTITLE4=Tear Stained Letter
TTITLE5=Wind in the Valley
TTITLE6=More and More
TTITLE7=Maybe Tomorrow
TTITLE8=Forever Has Come to an End
TTITLE9=My Dreams
TTITLE10=Old Pal of Yesterday
TTITLE11=Will There Ever Be Another
TTITLE12=So Sad (to watch good love go bad)
TTITLE13=I Don't Care
EXTD=YEAR: 2007
EXTT0=
EXTT1=
EXTT2=
EXTT3=
EXTT4=
EXTT5=
EXTT6=
EXTT7=
EXTT8=
EXTT9=
EXTT10=
EXTT11=
EXTT12=
EXTT13=
PLAYORDER=
